<?xml version="1.0" standalone="no"?>
<!DOCTYPE svg PUBLIC "-//W3C//DTD SVG 20010904//EN"
 "http://www.w3.org/TR/2001/REC-SVG-20010904/DTD/svg10.dtd">
<svg version="1.0" xmlns="http://www.w3.org/2000/svg"
 width="1080.000000pt" height="1085.000000pt" viewBox="0 0 1080.000000 1085.000000"
 preserveAspectRatio="xMidYMid meet">

<g transform="translate(0.000000,1085.000000) scale(0.100000,-0.100000)"
fill="#000000" stroke="none">
<path d="M5115 8214 c-961 -76 -1798 -545 -2363 -1324 -243 -336 -431 -756
-517 -1154 -41 -189 -65 -369 -72 -533 l-6 -153 80 0 80 0 7 128 c44 786 362
1490 917 2027 453 438 1033 728 1629 815 452 66 875 40 1291 -80 140 -41 264
-84 346 -121 421 -190 713 -393 1003 -697 504 -527 795 -1205 836 -1944 l7
-128 78 0 79 0 0 78 c0 296 -76 690 -197 1017 -163 442 -420 835 -764 1170
-390 379 -822 631 -1334 780 -292 84 -497 114 -820 119 -126 2 -252 2 -280 0z"/>
<path d="M5035 8015 c-264 -30 -510 -88 -749 -177 -707 -263 -1300 -803 -1631
-1483 -91 -188 -133 -295 -185 -472 -70 -245 -103 -441 -116 -694 l-7 -136 27
-5 c26 -5 26 -5 26 61 0 199 48 513 114 742 228 792 773 1447 1514 1818 828
415 1795 413 2627 -6 278 -140 516 -314 746 -543 370 -370 612 -778 758 -1280
59 -204 93 -415 106 -662 l7 -128 26 0 25 0 -7 128 c-41 790 -355 1476 -927
2027 -483 465 -1113 750 -1804 815 -142 13 -410 11 -550 -5z"/>
<path d="M4974 7808 c22 -34 136 -308 136 -327 0 -9 -28 -88 -63 -176 -59
-150 -65 -160 -92 -166 -18 -4 3 -7 50 -6 44 0 69 2 55 4 -14 3 -28 8 -32 12
-8 7 86 258 101 274 5 5 21 -24 36 -65 15 -40 38 -100 51 -132 29 -71 29 -83
7 -89 -10 -3 16 -5 57 -5 50 -1 68 2 54 8 -15 6 -37 49 -81 162 -33 84 -66
169 -73 189 -13 35 -11 42 50 180 34 79 68 147 74 151 6 4 -4 8 -22 8 -18 0
-31 -4 -28 -9 5 -8 -86 -226 -100 -240 -8 -8 -19 13 -69 127 -25 57 -43 107
-40 113 4 5 -14 9 -40 9 -45 0 -45 0 -31 -22z"/>
<path d="M5418 7823 c9 -4 12 -82 12 -343 l0 -339 -22 -4 c-13 -2 13 -5 57 -5
57 -1 74 2 58 8 l-23 9 0 335 c0 310 1 335 18 339 9 3 -12 5 -48 5 -36 0 -59
-2 -52 -5z"/>
<path d="M5608 7818 c13 -13 18 -644 4 -664 -4 -6 -14 -14 -22 -17 -8 -3 19
-5 60 -5 41 0 68 2 59 5 -10 2 -20 14 -23 26 -3 12 -6 160 -6 329 0 265 2 309
16 322 14 15 10 16 -42 16 -45 0 -55 -3 -46 -12z"/>
<path d="M4132 7576 c-62 -39 -70 -46 -44 -39 21 5 29 -7 234 -362 132 -228
126 -215 103 -231 -33 -24 -6 -15 56 19 63 34 72 44 38 43 -16 -1 -33 21 -78
99 -77 134 -251 435 -265 458 -9 15 -7 21 8 33 36 26 2 13 -52 -20z"/>
<path d="M3973 7484 c-35 -19 -63 -37 -63 -40 0 -3 9 0 21 6 11 7 23 9 27 5 7
-7 34 -257 28 -262 -5 -5 -203 134 -212 148 -3 6 2 17 12 24 35 26 6 15 -55
-21 -34 -20 -61 -37 -61 -39 0 -1 10 0 23 2 17 3 57 -21 157 -97 74 -56 139
-106 144 -111 5 -4 21 -86 36 -181 l27 -173 -24 -22 c-34 -33 -20 -28 48 13
56 34 83 57 38 33 -13 -7 -25 -7 -30 -2 -11 11 -52 268 -47 285 3 9 40 -19
186 -140 52 -43 53 -45 35 -64 -13 -14 -2 -11 37 12 57 33 87 56 60 46 -9 -4
-66 35 -153 103 -76 61 -149 118 -161 128 -22 16 -25 32 -40 178 l-16 160 27
22 c39 32 28 28 -44 -13z"/>
<path d="M6668 7489 c6 -7 12 -20 12 -28 0 -12 -99 -188 -280 -496 -36 -60
-52 -79 -66 -77 -18 2 -18 2 1 -14 30 -24 96 -56 103 -50 3 3 0 6 -6 6 -7 0
-12 8 -12 18 0 9 74 143 163 297 148 255 165 280 187 277 18 -2 9 7 -30 31
-87 52 -87 52 -72 36z"/>
<path d="M5160 6979 c-136 -11 -284 -43 -445 -97 -600 -198 -1071 -690 -1248
-1303 -31 -105 -64 -302 -73 -431 l-7 -98 111 0 c127 0 122 -4 122 100 0 162
80 471 167 643 139 277 343 511 588 677 158 106 340 188 520 234 104 27 277
56 333 56 30 0 35 5 64 65 18 36 35 65 38 65 3 0 19 -28 36 -62 l31 -63 104
-11 c195 -22 371 -68 526 -138 219 -98 346 -187 523 -365 152 -152 247 -283
331 -458 98 -203 169 -481 169 -664 l0 -79 115 0 c134 0 121 -20 104 160 -34
375 -165 714 -391 1012 -73 97 -256 283 -343 349 -306 233 -655 372 -1029 408
-121 12 -204 12 -346 0z"/>
<path d="M2975 6549 c-21 -33 -35 -62 -32 -65 3 -3 8 4 12 15 3 12 12 21 20
21 8 0 48 -48 90 -107 l77 -106 -93 7 c-164 12 -181 16 -175 38 6 26 1 20 -39
-43 -18 -30 -32 -56 -29 -58 2 -3 10 3 17 12 11 16 21 16 137 2 69 -8 150 -18
181 -21 l57 -7 103 -130 c57 -71 109 -141 115 -154 11 -25 11 -25 38 22 14 27
24 50 22 52 -2 3 -9 -5 -16 -16 -6 -12 -15 -21 -19 -21 -12 0 -191 222 -186
230 2 4 66 -4 142 -16 76 -13 142 -23 147 -24 4 0 6 -9 3 -20 -8 -32 9 -14 42
45 32 57 41 83 17 50 -13 -18 -19 -18 -209 10 -108 16 -200 31 -205 34 -5 3
-37 44 -72 91 -35 47 -77 103 -93 124 -27 34 -29 42 -20 67 17 44 8 35 -32
-32z"/>
<path d="M7666 6563 c6 -24 -10 -37 -131 -105 -44 -25 -159 -91 -256 -147 -97
-55 -181 -101 -187 -101 -6 0 -16 8 -21 18 -6 9 -11 12 -11 5 0 -7 16 -38 35
-70 22 -37 35 -51 35 -38 0 23 -8 18 204 139 88 51 208 120 266 154 100 58
106 60 124 44 14 -12 10 0 -13 43 -38 68 -52 87 -45 58z"/>
<path d="M5139 6555 c-344 -47 -648 -199 -889 -444 -259 -264 -409 -594 -435
-963 l-7 -98 230 0 231 0 5 33 c3 17 8 59 11 92 14 136 81 320 158 436 61 92
160 201 225 249 l62 44 -23 22 c-21 19 -25 34 -31 129 -4 59 -5 109 -3 111 2
2 46 -24 98 -59 77 -51 95 -68 97 -91 3 -22 7 -26 20 -20 60 27 190 65 253 75
41 6 80 13 87 15 9 3 11 30 6 119 -7 107 -5 119 16 164 21 46 21 51 6 72 -18
27 -21 81 -6 110 12 22 21 22 -111 4z"/>
<path d="M5406 6552 c17 -40 15 -78 -4 -102 l-20 -25 24 -48 c24 -46 25 -53
18 -173 l-7 -124 30 0 c49 0 215 -46 300 -83 169 -73 340 -218 445 -377 53
-80 114 -207 105 -216 -2 -3 -15 21 -28 53 -54 135 -200 313 -335 409 -124 89
-315 163 -463 180 l-59 6 -4 -87 c-3 -79 -1 -91 20 -118 34 -47 31 -116 -7
-159 -28 -32 -29 -39 -40 -186 -17 -234 -20 -218 39 -243 80 -34 150 -126 150
-196 0 -10 136 -13 646 -13 l647 0 -7 93 c-37 489 -288 915 -696 1179 -215
140 -428 212 -713 242 -43 5 -48 3 -41 -12z"/>
<path d="M7757 6401 c6 -23 -3 -29 -217 -151 -80 -46 -190 -110 -244 -142
-107 -62 -115 -65 -135 -45 -7 6 2 -16 21 -50 33 -62 51 -81 41 -44 -4 15 4
24 29 37 18 9 85 47 148 84 113 66 260 151 351 204 43 24 48 25 63 11 24 -24
20 -12 -19 54 -38 64 -46 74 -38 42z"/>
<path d="M5172 6039 c-60 -10 -172 -46 -247 -80 l-50 -22 27 -11 c65 -27 102
-92 78 -137 -10 -17 -9 -23 1 -30 8 -4 38 -57 68 -118 44 -88 61 -113 84 -122
35 -15 59 -65 51 -107 -4 -21 3 -46 25 -90 26 -51 34 -59 52 -55 11 3 22 11
25 17 2 6 -2 93 -9 193 -11 161 -15 184 -33 205 -50 54 -54 111 -13 169 12 18
19 44 19 76 0 58 -10 123 -19 122 -3 -1 -30 -5 -59 -10z"/>
<path d="M4700 5816 c-137 -113 -242 -263 -304 -435 -27 -75 -56 -227 -56
-293 l0 -38 374 0 373 0 6 40 c3 23 20 61 41 90 l36 50 -36 54 c-22 34 -45 57
-61 61 -44 11 -73 49 -73 97 0 36 -10 60 -65 143 -35 55 -65 105 -65 111 0 6
-13 14 -29 17 -42 9 -74 59 -73 113 0 24 -1 44 -1 44 -1 0 -31 -25 -67 -54z"/>
<path d="M2532 5265 c0 -65 1 -75 10 -52 5 15 13 27 17 27 16 0 225 -98 228
-107 2 -5 -34 -26 -79 -46 l-83 -36 73 -1 c55 0 87 6 131 25 l59 24 63 -24
c34 -14 79 -25 98 -24 34 0 32 2 -31 27 -36 15 -66 32 -66 37 0 9 56 34 206
91 l63 23 9 -22 c6 -16 9 -1 9 53 0 56 -3 70 -10 55 -7 -14 -68 -43 -196 -94
l-185 -73 -97 42 c-53 23 -118 52 -146 63 -62 26 -56 20 -65 59 -6 25 -8 13
-8 -47z"/>
<path d="M7421 5225 c0 -58 3 -74 9 -57 l9 22 336 0 c285 0 335 -2 335 -14 0
-8 3 -17 8 -19 4 -3 8 27 9 66 1 61 -1 69 -11 55 -12 -17 -41 -18 -345 -18
l-332 0 -9 23 c-6 16 -9 0 -9 -58z"/>
<path d="M5270 5207 c0 -15 29 -57 30 -42 0 6 -3 20 -6 33 -7 24 -24 31 -24 9z"/>
<path d="M5360 5179 c0 -32 6 -45 29 -65 17 -14 33 -34 36 -44 5 -16 15 -20
51 -20 43 0 44 1 38 28 -15 65 -89 142 -136 142 -14 0 -18 -9 -18 -41z"/>
<path d="M5176 5147 c-14 -18 -29 -48 -32 -65 l-6 -32 44 0 c40 0 45 3 55 31
11 28 9 35 -11 66 l-24 34 -26 -34z"/>
<path d="M7421 5083 l-1 -33 353 0 354 0 1 29 c1 29 0 29 -19 10 -18 -18 -36
-19 -342 -19 l-324 0 -11 23 c-10 21 -11 20 -11 -10z"/>
<path d="M4895 4861 c-115 -53 -185 -199 -185 -387 0 -102 13 -172 46 -243 61
-135 166 -182 327 -146 58 13 84 14 107 7 l30 -11 0 165 c0 157 1 164 20 164
11 0 20 5 20 10 0 6 -48 10 -125 10 -77 0 -125 -4 -125 -10 0 -5 11 -10 25
-10 l26 0 -3 -157 -3 -158 -33 -3 c-25 -3 -39 3 -61 26 -46 45 -62 116 -68
302 -9 261 21 405 90 438 24 12 33 11 64 -5 46 -22 77 -79 109 -201 l23 -87 1
158 0 157 -21 -21 c-21 -21 -38 -20 -91 7 -38 20 -125 17 -173 -5z"/>
<path d="M7695 4861 c-116 -54 -185 -200 -185 -391 0 -246 100 -392 271 -394
55 -1 72 3 106 26 49 32 98 126 107 203 7 58 -5 37 -23 -40 -20 -86 -99 -175
-156 -175 -84 0 -125 133 -125 398 1 221 31 341 93 370 24 12 33 11 64 -5 46
-22 77 -79 109 -201 l23 -87 1 158 0 157 -21 -21 c-21 -21 -38 -20 -91 7 -38
20 -125 17 -173 -5z"/>
<path d="M6646 4857 c-13 -10 -44 -108 -107 -346 -48 -183 -96 -347 -106 -364
-11 -18 -28 -34 -39 -35 -10 -2 -23 -8 -28 -13 -6 -5 36 -9 104 -9 70 0 110 4
105 9 -6 5 -26 11 -45 13 -25 2 -38 10 -49 30 -14 24 -13 35 8 123 l23 96 72
-3 71 -3 32 -122 31 -123 -23 0 c-13 0 -27 -4 -30 -10 -4 -6 42 -10 129 -10
84 0 136 4 136 10 0 6 -8 10 -18 10 -15 0 -33 57 -117 380 -104 399 -104 400
-149 367z m-27 -361 c17 -65 31 -121 31 -122 0 -2 -29 -4 -65 -4 -46 0 -65 4
-65 13 0 7 9 44 19 82 11 39 24 90 31 114 6 23 13 41 15 40 1 -2 17 -58 34
-123z"/>
<path d="M2003 4853 l27 -4 0 -370 0 -369 -25 0 c-14 0 -25 -4 -25 -10 0 -6
52 -10 135 -10 83 0 135 4 135 10 0 6 -11 10 -25 10 l-25 0 0 144 c0 119 3
150 18 175 9 17 20 31 23 31 3 0 32 -73 64 -162 32 -90 60 -169 63 -175 2 -8
-5 -13 -22 -13 -14 0 -26 -4 -26 -10 0 -6 53 -10 140 -10 87 0 140 4 140 10 0
6 -8 10 -17 10 -14 0 -40 54 -112 238 -52 130 -100 251 -107 268 -13 30 -11
36 39 115 42 69 60 88 97 106 l45 22 -125 -1 c-69 -1 -109 -3 -90 -5 87 -9
103 -28 74 -85 -20 -40 -183 -309 -195 -322 -5 -6 -9 81 -9 196 0 206 0 207
23 211 12 2 -39 4 -113 4 -74 0 -123 -2 -107 -4z"/>
<path d="M2658 4853 l32 -4 0 -370 0 -369 -30 0 c-16 0 -30 -4 -30 -10 0 -6
57 -10 150 -10 93 0 150 4 150 10 0 6 -16 10 -35 10 l-35 0 0 369 0 370 38 4
c20 2 -33 4 -118 4 -85 0 -140 -2 -122 -4z"/>
<path d="M3003 4853 l27 -4 0 -370 0 -369 -25 0 c-14 0 -25 -4 -25 -10 0 -6
56 -10 148 -10 243 0 319 32 386 160 37 71 49 145 43 266 -6 139 -25 192 -91
260 -72 74 -114 84 -325 83 -91 -1 -154 -4 -138 -6z m308 -39 c52 -50 64 -113
64 -334 0 -158 -3 -206 -18 -252 -23 -76 -65 -118 -118 -118 l-39 0 0 371 0
372 41 -6 c26 -3 52 -16 70 -33z"/>
<path d="M3591 4853 c24 -4 31 -21 105 -226 l79 -222 3 -147 3 -148 -30 0
c-17 0 -31 -4 -31 -10 0 -6 54 -10 141 -10 91 0 138 4 134 10 -3 6 -17 10 -31
10 l-24 0 0 147 0 148 62 193 c82 256 106 283 159 179 19 -36 20 -56 17 -329
l-3 -290 -28 -24 c-15 -13 -37 -24 -47 -24 -10 0 -22 -4 -25 -10 -4 -6 35 -10
109 -10 71 0 116 4 116 10 0 6 -11 10 -24 10 -13 0 -34 8 -46 18 -30 24 -41
134 -38 377 l3 190 59 -120 c32 -66 95 -197 141 -290 88 -183 99 -195 170
-195 l35 0 0 335 c0 378 2 391 69 419 35 14 31 15 -89 14 -74 0 -113 -3 -95
-7 90 -22 96 -44 93 -317 l-3 -208 -110 238 c-60 131 -122 251 -137 267 l-26
29 -194 -1 c-106 -1 -184 -3 -173 -6 11 -2 30 -6 42 -8 36 -8 53 -33 53 -78 0
-39 -87 -323 -96 -314 -6 5 -134 376 -134 387 0 5 17 11 38 13 20 2 -33 4
-118 4 -85 0 -143 -2 -129 -4z"/>
<path d="M5512 4853 c22 -3 30 -12 37 -41 6 -20 49 -183 96 -361 86 -330 102
-371 145 -371 18 0 35 56 116 385 20 83 40 153 43 158 4 4 35 -102 70 -235 35
-134 70 -255 77 -270 12 -24 58 -48 69 -37 2 3 40 151 85 329 45 179 90 344
100 367 11 25 32 51 52 63 l33 20 -120 -1 c-85 -1 -109 -4 -81 -9 92 -17 97
-82 29 -342 -27 -103 -49 -174 -54 -166 -8 15 -129 479 -129 496 0 6 17 13 38
15 20 2 -33 4 -118 4 -85 0 -143 -2 -128 -4 24 -4 28 -12 48 -86 12 -45 22
-91 22 -102 0 -11 -14 -74 -32 -140 -17 -66 -36 -137 -41 -159 -6 -21 -12 -36
-15 -34 -4 5 -134 497 -134 510 0 4 17 9 38 11 20 2 -33 4 -118 4 -85 0 -143
-2 -128 -4z"/>
<path d="M6951 4688 c1 -141 3 -161 10 -109 10 82 44 190 67 216 23 27 63 55
79 55 10 0 13 -76 13 -370 l0 -370 -30 0 c-16 0 -30 -4 -30 -10 0 -6 55 -10
145 -10 90 0 145 4 145 10 0 6 -13 10 -30 10 l-30 0 0 371 0 370 23 -6 c36
-10 86 -75 103 -132 8 -29 21 -85 29 -125 l13 -73 1 173 1 172 -255 0 -255 0
1 -172z"/>
<path d="M8088 4853 l32 -4 0 -370 0 -369 -30 0 c-16 0 -30 -4 -30 -10 0 -6
53 -10 140 -10 87 0 140 4 140 10 0 6 -11 10 -25 10 l-25 0 0 185 0 185 75 0
75 0 0 -185 0 -185 -24 0 c-14 0 -28 -4 -31 -10 -4 -6 45 -10 140 -10 95 0
144 4 140 10 -3 6 -19 10 -36 10 l-29 0 2 368 3 367 35 6 c19 4 -32 6 -115 6
-82 0 -135 -2 -117 -4 l32 -4 0 -175 0 -174 -75 0 -75 0 0 174 0 175 28 4 c15
2 -38 4 -118 4 -80 0 -130 -2 -112 -4z"/>
<path d="M3500 3321 l0 -448 57 -12 c31 -6 62 -11 69 -11 10 0 14 35 16 152
l3 152 74 1 c75 0 75 0 95 35 20 33 21 51 21 265 0 203 -2 234 -18 263 -10 18
-29 37 -43 42 -14 6 -81 10 -150 10 l-124 0 0 -449z m184 341 c3 -5 6 -95 7
-201 2 -198 -2 -218 -38 -204 -10 4 -13 48 -13 209 0 195 1 204 19 204 11 0
22 -4 25 -8z"/>
<path d="M4038 3758 c-3 -7 -6 -232 -7 -499 l-3 -487 44 -7 c24 -3 55 -8 71
-11 l27 -6 1 164 c2 196 2 194 11 203 10 10 15 -17 38 -205 12 -90 22 -165 23
-166 5 -5 133 -21 138 -18 3 2 -10 94 -29 204 l-34 201 23 25 c24 25 24 29 27
262 5 349 3 352 -198 352 -93 0 -129 -3 -132 -12z m186 -114 c3 -9 6 -101 6
-204 0 -174 -2 -190 -18 -199 -11 -6 -23 -6 -28 -1 -5 5 -8 101 -6 214 3 193
4 206 21 206 11 0 22 -7 25 -16z"/>
<path d="M4575 3438 c-3 -183 -5 -423 -3 -533 l3 -200 55 -7 c30 -4 98 -8 150
-10 l95 -3 3 51 3 51 -47 7 c-26 3 -62 6 -80 6 l-34 0 0 200 0 200 75 0 75 0
0 55 0 54 -72 3 -73 3 0 170 0 170 73 3 72 3 0 54 0 55 -144 0 -144 0 -7 -332z"/>
<path d="M5067 3763 c-4 -3 -7 -251 -7 -550 l0 -543 70 0 70 0 1 323 c0 177 4
331 9 342 5 11 9 16 9 10 4 -51 73 -663 76 -672 3 -8 23 -13 55 -13 31 0 52 5
55 13 4 10 75 629 75 651 0 3 5 6 10 6 6 0 10 -118 10 -335 l0 -336 68 3 67 3
3 553 2 552 -89 0 c-50 0 -92 -4 -95 -8 -5 -8 -22 -139 -71 -532 -14 -112 -28
-206 -30 -209 -3 -2 -7 2 -10 10 -5 14 -43 309 -70 544 -9 72 -18 145 -21 163
l-6 32 -87 0 c-48 0 -91 -3 -94 -7z"/>
<path d="M5844 3756 c-7 -18 -1 -1073 6 -1079 3 -3 34 -2 70 2 l65 6 3 325 c1
179 -1 423 -4 543 l-7 217 -64 0 c-46 0 -65 -4 -69 -14z"/>
<path d="M6190 3298 c0 -282 4 -487 10 -509 6 -19 21 -46 35 -59 23 -22 29
-22 111 -16 101 8 137 24 161 69 17 29 18 72 18 507 l0 475 -67 3 c-50 2 -68
0 -69 -10 0 -7 0 -211 1 -453 1 -242 -2 -448 -5 -457 -6 -15 -39 -25 -47 -15
-1 1 -5 211 -8 467 l-5 465 -67 3 -68 3 0 -473z"/>
<path d="M6730 3269 l0 -502 62 7 c34 4 66 10 70 12 4 3 8 135 8 294 0 182 4
291 10 295 6 3 10 2 10 -2 0 -5 13 -108 29 -228 16 -121 33 -246 37 -279 l7
-58 51 6 c28 4 54 10 57 14 4 4 21 126 39 272 17 146 35 276 40 290 5 15 9
-93 9 -259 l1 -284 50 7 c28 4 62 11 76 16 l24 10 0 430 c-1 237 -3 437 -6
445 -5 12 -26 15 -94 15 -76 0 -89 -3 -94 -17 -2 -10 -23 -153 -46 -318 -23
-165 -46 -304 -50 -308 -4 -5 -13 27 -19 70 -6 43 -28 186 -47 317 -19 132
-37 244 -40 248 -3 4 -45 8 -95 8 l-89 0 0 -501z"/>
<path d="M0 20 c0 -20 7 -20 5400 -20 5393 0 5400 0 5400 20 0 20 -7 20 -5400
20 -5393 0 -5400 0 -5400 -20z"/>
</g>
</svg>
